<svg xmlns="http://www.w3.org/2000/svg" width="28" height="28" fill="none" viewBox="0 0 28 28">
  <g clip-path="url(#a)">
    <path fill="#000" d="M12.629 1.477c.56-1.136 2.181-1.136 2.742 0l3.142 6.359a1.53 1.53 0 0 0 1.151.835l7.025 1.02c1.254.182 1.755 1.722.848 2.606l-5.084 4.95a1.527 1.527 0 0 0-.44 1.352l1.2 6.99c.215 1.247-1.096 2.199-2.218 1.61l-6.283-3.3a1.53 1.53 0 0 0-1.424 0l-6.283 3.3c-1.122.589-2.433-.363-2.219-1.61l1.2-6.99a1.527 1.527 0 0 0-.44-1.352l-5.083-4.95c-.907-.884-.406-2.424.848-2.606l7.025-1.02a1.529 1.529 0 0 0 1.151-.835l3.142-6.36Z"/>
    <path stroke="#fff" stroke-opacity=".2" stroke-width=".5" d="M18.289 7.947a1.78 1.78 0 0 0 1.34.972l7.024 1.02c1.05.152 1.468 1.44.71 2.179l.174.179-.175-.18-5.083 4.95a1.776 1.776 0 0 0-.512 1.574l1.2 6.99c.18 1.043-.917 1.84-1.856 1.346l-6.283-3.3-.116.222.116-.222a1.78 1.78 0 0 0-1.656 0l.116.222-.116-.222-6.283 3.3c-.939.494-2.035-.303-1.856-1.346l1.2-6.99a1.777 1.777 0 0 0-.512-1.573l-5.083-4.95-.174.178.174-.178c-.759-.74-.34-2.027.709-2.18l-.036-.247.036.248 7.025-1.02a1.779 1.779 0 0 0 1.34-.972l3.14-6.36-.223-.11.224.11c.469-.95 1.825-.95 2.294 0l.216-.106-.216.106 3.142 6.36Z"/>
  </g>
  <defs>
    <clipPath id="a">
      <path fill="#fff" d="M0 0h28v28H0z"/>
    </clipPath>
  </defs>
</svg>

